<?xml version="1.0" encoding="UTF-8" standalone="no"?>
<!DOCTYPE svg PUBLIC "-//W3C//DTD SVG 1.1//EN"
 "http://www.w3.org/Graphics/SVG/1.1/DTD/svg11.dtd">
<!-- Generated by graphviz version 2.36.0 (20140111.2315)
 -->
<!-- Title: app_topology Pages: 1 -->
<svg width="383pt" height="204pt"
 viewBox="0.00 0.00 382.65 204.00" xmlns="http://www.w3.org/2000/svg" xmlns:xlink="http://www.w3.org/1999/xlink">
<g id="graph0" class="graph" transform="scale(1 1) rotate(0) translate(4 200)">
<title>app_topology</title>
<polygon fill="white" stroke="none" points="-4,4 -4,-200 378.653,-200 378.653,4 -4,4"/>
<g id="clust1" class="cluster"><title>cluster_a</title>
<polygon fill="none" stroke="black" points="8,-8 8,-132 166,-132 166,-8 8,-8"/>
</g>
<g id="clust2" class="cluster"><title>cluster_b</title>
<polygon fill="none" stroke="black" points="206,-8 206,-132 366,-132 366,-8 206,-8"/>
</g>
<!-- load balancer -->
<g id="node1" class="node"><title>load balancer</title>
<polygon fill="none" stroke="black" points="292.25,-196 179.75,-196 179.75,-160 292.25,-160 292.25,-196"/>
<text text-anchor="middle" x="236" y="-174.3" font-family="Times,serif" font-size="14.00">load balancer</text>
</g>
<!-- app_server_a -->
<g id="node2" class="node"><title>app_server_a</title>
<ellipse fill="none" stroke="black" cx="87" cy="-106" rx="71.2405" ry="18"/>
<text text-anchor="middle" x="87" y="-102.3" font-family="Times,serif" font-size="14.00">app_server_a</text>
</g>
<!-- load balancer&#45;&gt;app_server_a -->
<g id="edge3" class="edge"><title>load balancer&#45;&gt;app_server_a</title>
<path fill="none" stroke="black" d="M199.55,-159.876C178.141,-149.818 151.001,-137.067 128.736,-126.607"/>
<polygon fill="black" stroke="black" points="130.062,-123.364 119.523,-122.279 127.086,-129.699 130.062,-123.364"/>
</g>
<!-- store_a -->
<g id="node3" class="node"><title>store_a</title>
<ellipse fill="none" stroke="black" cx="100" cy="-34" rx="44.2946" ry="18"/>
<text text-anchor="middle" x="100" y="-30.3" font-family="Times,serif" font-size="14.00">store_a</text>
</g>
<!-- load balancer&#45;&gt;store_a -->
<g id="edge4" class="edge"><title>load balancer&#45;&gt;store_a</title>
<path fill="none" stroke="black" d="M223.004,-159.778C204.788,-135.712 173.191,-94.2514 167,-88 155.553,-76.4407 141.615,-65.057 129.423,-55.8205"/>
<polygon fill="black" stroke="black" points="131.426,-52.949 121.312,-49.7933 127.251,-58.5674 131.426,-52.949"/>
</g>
<!-- app_server_b -->
<g id="node4" class="node"><title>app_server_b</title>
<ellipse fill="none" stroke="black" cx="286" cy="-106" rx="72.2155" ry="18"/>
<text text-anchor="middle" x="286" y="-102.3" font-family="Times,serif" font-size="14.00">app_server_b</text>
</g>
<!-- load balancer&#45;&gt;app_server_b -->
<g id="edge5" class="edge"><title>load balancer&#45;&gt;app_server_b</title>
<path fill="none" stroke="black" d="M248.36,-159.697C254.233,-151.474 261.369,-141.483 267.842,-132.421"/>
<polygon fill="black" stroke="black" points="270.818,-134.276 273.783,-124.104 265.122,-130.207 270.818,-134.276"/>
</g>
<!-- store_b -->
<g id="node5" class="node"><title>store_b</title>
<ellipse fill="none" stroke="black" cx="299" cy="-34" rx="44.271" ry="18"/>
<text text-anchor="middle" x="299" y="-30.3" font-family="Times,serif" font-size="14.00">store_b</text>
</g>
<!-- load balancer&#45;&gt;store_b -->
<g id="edge6" class="edge"><title>load balancer&#45;&gt;store_b</title>
<path fill="none" stroke="black" d="M292.427,-172.48C319.654,-167.124 350.025,-155.78 367,-132 378.362,-116.084 375.583,-105.571 367,-88 360.115,-73.9036 347.469,-62.4657 334.933,-53.8724"/>
<polygon fill="black" stroke="black" points="336.655,-50.819 326.345,-48.3799 332.884,-56.7162 336.655,-50.819"/>
</g>
<!-- app_server_a&#45;&gt;store_a -->
<g id="edge1" class="edge"><title>app_server_a&#45;&gt;store_a</title>
<path fill="none" stroke="black" d="M90.2135,-87.6966C91.6461,-79.9827 93.3677,-70.7125 94.9648,-62.1124"/>
<polygon fill="black" stroke="black" points="98.4386,-62.5753 96.8235,-52.1043 91.5563,-61.2971 98.4386,-62.5753"/>
</g>
<!-- app_server_b&#45;&gt;store_b -->
<g id="edge2" class="edge"><title>app_server_b&#45;&gt;store_b</title>
<path fill="none" stroke="black" d="M289.213,-87.6966C290.646,-79.9827 292.368,-70.7125 293.965,-62.1124"/>
<polygon fill="black" stroke="black" points="297.439,-62.5753 295.823,-52.1043 290.556,-61.2971 297.439,-62.5753"/>
</g>
</g>
</svg>
