<?xml version="1.0" encoding="UTF-8" standalone="no"?>
<!DOCTYPE svg PUBLIC "-//W3C//DTD SVG 1.1//EN"
 "http://www.w3.org/Graphics/SVG/1.1/DTD/svg11.dtd">
<!-- Generated by graphviz version 2.36.0 (20140111.2315)
 -->
<!-- Title: button Pages: 1 -->
<svg width="334pt" height="206pt"
 viewBox="0.00 0.00 334.00 206.00" xmlns="http://www.w3.org/2000/svg" xmlns:xlink="http://www.w3.org/1999/xlink">
<g id="graph0" class="graph" transform="scale(1 1) rotate(0) translate(4 202)">
<title>button</title>
<polygon fill="white" stroke="none" points="-4,4 -4,-202 330,-202 330,4 -4,4"/>
<!-- button -->
<g id="node1" class="node"><title>button</title>
<polygon fill="none" stroke="black" points="64,-131 0,-131 0,-67 64,-67 64,-131"/>
<text text-anchor="middle" x="32" y="-95.3" font-family="Times,serif" font-size="14.00">button</text>
</g>
<!-- A/B usage tracker -->
<g id="node2" class="node"><title>A/B usage tracker</title>
<ellipse fill="none" stroke="black" cx="230" cy="-180" rx="93.6835" ry="18"/>
<text text-anchor="middle" x="230" y="-176.3" font-family="Times,serif" font-size="14.00">A/B usage tracker</text>
</g>
<!-- button&#45;&gt;A/B usage tracker -->
<g id="edge1" class="edge"><title>button&#45;&gt;A/B usage tracker</title>
<path fill="none" stroke="black" d="M64.0049,-117.815C83.5723,-129.119 109.665,-143.169 134,-153 142.908,-156.599 152.469,-159.916 161.968,-162.902"/>
<polygon fill="black" stroke="black" points="161.231,-166.336 171.816,-165.892 163.264,-159.638 161.231,-166.336"/>
<text text-anchor="middle" x="99" y="-147.8" font-family="Times,serif" font-size="14.00">click</text>
</g>
<!-- Analytics collector -->
<g id="node3" class="node"><title>Analytics collector</title>
<ellipse fill="none" stroke="black" cx="230" cy="-126" rx="96.3833" ry="18"/>
<text text-anchor="middle" x="230" y="-122.3" font-family="Times,serif" font-size="14.00">Analytics collector</text>
</g>
<!-- button&#45;&gt;Analytics collector -->
<g id="edge2" class="edge"><title>button&#45;&gt;Analytics collector</title>
<path fill="none" stroke="black" d="M64.0568,-103.278C85.1107,-106.179 114.061,-110.167 141.835,-113.993"/>
<polygon fill="black" stroke="black" points="141.614,-117.495 151.998,-115.393 142.569,-110.561 141.614,-117.495"/>
</g>
<!-- Form validator -->
<g id="node4" class="node"><title>Form validator</title>
<ellipse fill="none" stroke="black" cx="230" cy="-72" rx="79.0865" ry="18"/>
<text text-anchor="middle" x="230" y="-68.3" font-family="Times,serif" font-size="14.00">Form validator</text>
</g>
<!-- button&#45;&gt;Form validator -->
<g id="edge3" class="edge"><title>button&#45;&gt;Form validator</title>
<path fill="none" stroke="black" d="M64.0568,-94.7218C87.5259,-91.4888 120.807,-86.9042 151.334,-82.6989"/>
<polygon fill="black" stroke="black" points="152.134,-86.1218 161.563,-81.2898 151.179,-79.1873 152.134,-86.1218"/>
</g>
<!-- … -->
<g id="node5" class="node"><title>…</title>
<ellipse fill="none" stroke="black" cx="230" cy="-18" rx="27" ry="18"/>
<text text-anchor="middle" x="230" y="-14.3" font-family="Times,serif" font-size="14.00">…</text>
</g>
<!-- button&#45;&gt;… -->
<g id="edge4" class="edge"><title>button&#45;&gt;…</title>
<path fill="none" stroke="black" d="M64.0049,-80.1851C83.5723,-68.8811 109.665,-54.8314 134,-45 153.36,-37.1786 175.798,-30.6887 194.005,-26.0334"/>
<polygon fill="black" stroke="black" points="195.047,-29.381 203.909,-23.5738 193.36,-22.5874 195.047,-29.381"/>
</g>
</g>
</svg>
