<?xml version="1.0" encoding="UTF-8" standalone="no"?>
<!DOCTYPE svg PUBLIC "-//W3C//DTD SVG 1.1//EN"
 "http://www.w3.org/Graphics/SVG/1.1/DTD/svg11.dtd">
<!-- Generated by graphviz version 2.36.0 (20140111.2315)
 -->
<!-- Title: observer Pages: 1 -->
<svg width="270pt" height="152pt"
 viewBox="0.00 0.00 270.00 152.00" xmlns="http://www.w3.org/2000/svg" xmlns:xlink="http://www.w3.org/1999/xlink">
<g id="graph0" class="graph" transform="scale(1 1) rotate(0) translate(4 148)">
<title>observer</title>
<polygon fill="white" stroke="none" points="-4,4 -4,-148 266,-148 266,4 -4,4"/>
<!-- subject -->
<g id="node1" class="node"><title>subject</title>
<polygon fill="none" stroke="black" points="68,-106 0,-106 0,-38 68,-38 68,-106"/>
<text text-anchor="middle" x="34" y="-68.3" font-family="Times,serif" font-size="14.00">subject</text>
</g>
<!-- observer1 -->
<g id="node2" class="node"><title>observer1</title>
<ellipse fill="none" stroke="black" cx="204" cy="-126" rx="57.6901" ry="18"/>
<text text-anchor="middle" x="204" y="-122.3" font-family="Times,serif" font-size="14.00">observer1</text>
</g>
<!-- subject&#45;&gt;observer1 -->
<g id="edge1" class="edge"><title>subject&#45;&gt;observer1</title>
<path fill="none" stroke="black" d="M68.1914,-82.6687C92.4639,-90.4705 125.803,-101.187 153.253,-110.01"/>
<polygon fill="black" stroke="black" points="152.48,-113.438 163.072,-113.166 154.622,-106.774 152.48,-113.438"/>
<text text-anchor="middle" x="107" y="-103.8" font-family="Times,serif" font-size="14.00">notify</text>
</g>
<!-- observer2 -->
<g id="node3" class="node"><title>observer2</title>
<ellipse fill="none" stroke="black" cx="204" cy="-72" rx="57.6901" ry="18"/>
<text text-anchor="middle" x="204" y="-68.3" font-family="Times,serif" font-size="14.00">observer2</text>
</g>
<!-- subject&#45;&gt;observer2 -->
<g id="edge2" class="edge"><title>subject&#45;&gt;observer2</title>
<path fill="none" stroke="black" d="M68.1914,-72C87.5167,-72 112.589,-72 135.861,-72"/>
<polygon fill="black" stroke="black" points="136.05,-75.5001 146.05,-72 136.05,-68.5001 136.05,-75.5001"/>
</g>
<!-- … -->
<g id="node4" class="node"><title>…</title>
<ellipse fill="none" stroke="black" cx="204" cy="-18" rx="27" ry="18"/>
<text text-anchor="middle" x="204" y="-14.3" font-family="Times,serif" font-size="14.00">…</text>
</g>
<!-- subject&#45;&gt;… -->
<g id="edge3" class="edge"><title>subject&#45;&gt;…</title>
<path fill="none" stroke="black" d="M68.1914,-61.3313C97.5317,-51.9005 140.119,-38.2117 169.54,-28.755"/>
<polygon fill="black" stroke="black" points="170.905,-31.9928 179.354,-25.6005 168.763,-25.3286 170.905,-31.9928"/>
</g>
</g>
</svg>
